<svg viewBox="0 0 122.1 22.7" xmlns="http://www.w3.org/2000/svg" role="img" aria-label="Patagonia">
  <path d="M37.5 15.2c0-.2-.2-.1-.2-.1-.3.2-.4.2-.8.2s-1.1-.2-1.1-1V6.6s0-.1.1-.1h1.8s.1.1.1-.1.4-1.9.4-1.9 0-.1-.1-.1h-2.3s-.1 0-.1-.1v-1c0-.6 0-1.4.2-2 0 0 .1-.1-.1-.1S34.1 1 34 1c-.1 0-.2.1-.2.1C32.9 3 31.1 4.4 29 5c0 0-.1 0-.1.1v1.2c0 .2.1.1.1.1h1.2c.1 0 .1.1.1.1v7.9c0 2.3 1 3.6 3.5 3.6 2.3 0 2.4-.1 4.2-1.3 0 0 .1 0 .1-.2-.1 0-.6-1.1-.6-1.3zM9.5 4c-1.2 0-2.1.5-3.3 1.3 0 0-.1.1-.1-.1v-1c-.1-.2-.2-.1-.2-.1L.1 5.6s-.1 0-.1.1v1.4c0 .2.1.1.1.1L.8 7s.2 0 .2.1V20s0 .2-.2.2H.2s-.2 0-.2.2v1.3c0 .2.2.2.2.2h7.5s.1 0 .1-.2v-1.3c0-.2-.2-.2-.2-.2H6.2C6 20.2 6 20 6 20v-2.3c0-.1.1-.1.1-.1.7.4 1.8.5 2.6.5 4.1 0 6.5-3.8 6.5-7.6 0-3.9-2.5-6.5-5.7-6.5zM7.8 16C6.4 16 6 15 6 13.8V7.2c0-.2.2-.2.2-.2l.7-.1c.9 0 3.3.2 3.3 5.1-.1 3-.8 4-2.4 4zm93.7-12c1.4 0 3.6-.6 3.6-2.3 0-1.4-1.3-1.7-2.5-1.7s-3 1-3 2.3c0 1.1.8 1.7 1.9 1.7z"/>
  <path d="M74.2 4c-4.4 0-7.8 2.7-7.8 7 0 4.4 3.4 7 7.8 7s7.9-2.7 7.9-7-3.4-7-7.9-7zm.9 12c-2.8 0-3.6-4.9-3.6-6.9 0-1 0-3 1.9-3C76.2 6.1 77 11 77 13c0 1.4-.4 3-1.9 3z"/>
</svg>
